<svg xmlns="http://www.w3.org/2000/svg" viewBox="0 0 1672 941">
  <polygon
    fill="#fff"
    points="
      834,568 820,578 815,588 809,598 804,608 798,618 793,628 790,638
      784,648 779,658 775,668 773,678 767,688 747,698 723,708 712,718
      709,728 702,738 697,748 693,758 693,768 691,778 686,788 679,798
      678,808 677,818 675,828 674,838 673,848 672,858 672,868 668,878
      667,888 667,898 666,908 665,918 665,928 669,938 669,941 1000,941
      1000,938 1001,928 1004,918 1004,908 1003,898 999,888 999,878
      997,868 994,858 991,848 991,838 988,828 985,818 984,808 984,798
      984,788 980,778 980,768 977,758 974,748 967,738 956,728 945,718
      929,708 912,698 911,688 910,678 908,668 904,658 902,648 899,638
      893,628 889,618 884,608 878,598 866,588 855,578 839,568
    "
  />
</svg>
