<svg xmlns="http://www.w3.org/2000/svg" viewBox="0 0 1672 941">
  <polygon
    fill="#fff"
    points="
      829,568 823,576 814,584 806,592 802,600 798,608 795,616 792,624
      787,632 784,640 782,648 779,656 775,664 771,672 766,680 767,688
      753,696 736,704 721,712 707,720 702,728 697,736 696,744 693,752
      690,760 690,768 686,776 687,784 685,792 683,800 681,808 679,816
      678,824 676,832 673,840 672,848 673,856 668,864 665,872 665,880
      668,888 667,896 667,904 669,912 673,920 673,928 675,936 676,941
      994,941 994,936 996,928 997,920 999,912 1001,904 1001,896 999,888
      999,880 999,872 995,864 995,856 994,848 994,840 990,832 989,824
      988,816 987,808 983,800 981,792 983,784 982,776 980,768 975,760
      975,752 973,744 967,736 966,728 961,720 948,712 934,704 920,696
      909,688 912,680 912,672 909,664 905,656 902,648 899,640 896,632
      893,624 889,616 886,608 882,600 878,592 873,584 863,576 849,568
    "
  />
</svg>
